<svg width="320" height="48" viewBox="399 795 1220 411" fill="none" xmlns="http://www.w3.org/2000/svg" role="img" aria-label="Hawaa">
  <title>Hawaa</title>
  <path d="M812.119 1140.13C786.167 1166.07 750.428 1182.07 710.836 1182.09C671.245 1182.09 635.519 1166.07 609.553 1140.13C608.62 1139.2 607.714 1138.27 606.809 1137.31C581.87 1110.95 568.582 1075.64 568.582 1039.35V997.202C568.582 995.404 568.569 993.647 568.542 991.916C568.204 967.964 565.568 950.216 560.621 938.673C555.363 926.399 547.185 916.599 536.128 909.246C536.033 909.179 535.952 909.111 535.857 909.057C524.652 901.69 511.743 898 497.131 898C482.979 898 469.867 901.298 457.783 907.908C445.699 914.504 434.642 924.466 425.855 937.794V827.981H399.511V1096.96H425.855V1025.87C425.855 1000.05 425.747 982.428 427.991 972.993C431.762 958.259 439.629 945.904 451.606 935.942C463.568 925.98 477.099 921.006 492.184 921.006C505.39 921.006 516.055 924.223 524.192 930.644C529.099 934.523 533.073 939.592 536.128 945.81C538.142 949.892 539.777 954.461 540.98 959.557C542.481 965.599 543.386 976.399 543.697 991.944C543.697 992.146 543.711 992.349 543.711 992.552V1038.89C543.711 1085 562.432 1126.86 592.656 1157.05C622.853 1187.28 664.716 1206.01 710.822 1206C756.929 1206 798.792 1187.28 828.989 1157.05C837.978 1148.08 845.939 1138.06 852.698 1127.21H823.528C819.986 1131.72 816.188 1136.06 812.119 1140.13Z" fill="#0A0A0A"/>
  <path d="M1050.82 1043.89L988.923 902.947H984.503L922.257 1043.89L862.93 903.177C851.157 871.98 830.381 845.243 803.726 826.157C776.367 806.557 742.737 795 706.538 795C660.431 795 618.569 813.721 588.372 843.945C582.789 849.514 577.612 855.489 572.854 861.815H604.457C604.457 861.815 605.216 860.866 605.254 860.828C631.207 834.889 666.946 818.885 706.538 818.871C737.641 818.871 766.337 828.752 789.817 845.554C813.296 862.369 831.49 886.105 841.398 913.734L919.945 1096.92H924.541L986.787 958.097L1048.33 1096.92H1053.28L1137.45 902.92H1111.28L1050.82 1043.89Z" fill="#0A0A0A"/>
  <path d="M814.958 1009.06C814.944 1004.73 814.931 1000.26 814.917 995.607C814.917 968.492 805.834 945.094 787.68 925.399C767.986 903.826 743.236 893.039 713.404 893.039C690.736 893.039 671.001 899.325 654.199 911.855C648.887 915.816 643.859 920.371 639.141 925.588C622.164 944.485 613.297 966.599 612.513 991.93C612.472 993.16 612.432 994.377 612.432 995.62C612.432 1022.61 621.826 1046.23 640.642 1066.45C659.444 1086.67 683.707 1096.78 713.418 1096.78C733.409 1095.09 749.968 1089.96 763.133 1081.41C773.88 1074.44 782.368 1065.19 788.573 1053.64C788.573 1082.17 788.573 1096.85 788.573 1097.67C794.818 1097.67 803.604 1097.67 814.917 1097.67C815.134 1096.66 815.147 1067.11 814.958 1009.06ZM713.769 1073.59C670.693 1073.59 635.516 1038.41 635.516 995.337C635.516 952.264 670.693 917.083 713.769 917.083C756.846 917.083 792.023 952.264 792.023 995.337C792.023 1038.41 756.846 1073.59 713.769 1073.59Z" fill="#0A0A0A"/>
  <path d="M 1377.80 1009.06 C 1377.79 1004.73 1377.78 1000.26 1377.76 995.607 C 1377.76 968.492 1368.68 945.094 1350.53 925.399 C 1330.83 903.826 1306.08 893.039 1276.25 893.039 C 1253.58 893.039 1233.85 899.325 1217.05 911.855 C 1211.73 915.816 1206.71 920.371 1201.99 925.588 C 1185.01 944.485 1176.14 966.599 1175.36 991.93 C 1175.32 993.16 1175.28 994.377 1175.28 995.62 C 1175.28 1022.61 1184.67 1046.23 1203.49 1066.45 C 1222.29 1086.67 1246.55 1096.78 1276.25 1096.78 C 1296.24 1095.09 1312.80 1089.96 1325.97 1081.41 C 1336.71 1074.44 1345.20 1065.19 1351.41 1053.64 C 1351.41 1082.17 1351.41 1096.85 1351.41 1097.67 C 1357.65 1097.67 1366.44 1097.67 1377.75 1097.67 C 1377.98 1096.66 1377.99 1067.11 1377.80 1009.06 Z M1276.61 1073.59C1233.53 1073.59 1198.35 1038.41 1198.35 995.337C1198.35 952.264 1233.53 917.083 1276.61 917.083C1319.69 917.083 1354.86 952.264 1354.86 995.337C1354.86 1038.41 1319.69 1073.59 1276.61 1073.59Z" fill="#0A0A0A"/>
  <path d="M 1619.37 1009.06 C 1619.35 1004.73 1619.34 1000.26 1619.33 995.607 C 1619.33 968.492 1610.24 945.094 1592.09 925.399 C 1572.40 903.826 1547.65 893.039 1517.81 893.039 C 1495.15 893.039 1475.41 899.325 1458.61 911.855 C 1453.30 915.816 1448.27 920.371 1443.55 925.588 C 1426.57 944.485 1417.71 966.599 1416.92 991.93 C 1416.88 993.16 1416.84 994.377 1416.84 995.62 C 1416.84 1022.61 1426.24 1046.23 1445.05 1066.45 C 1463.85 1086.67 1488.12 1096.78 1517.81 1096.78 C 1537.81 1095.09 1554.36 1089.96 1567.53 1081.41 C 1578.28 1074.44 1586.76 1065.19 1592.97 1053.64 C 1592.97 1082.17 1592.97 1096.85 1592.97 1097.67 C 1599.21 1097.67 1608 1097.67 1619.31 1097.67 C 1619.53 1096.66 1619.54 1067.11 1619.37 1009.06 Z M1518.17 1073.59C1475.10 1073.59 1439.91 1038.41 1439.91 995.337C1439.91 952.264 1475.10 917.083 1518.17 917.083C1561.24 917.083 1596.42 952.264 1596.42 995.337C1596.42 1038.41 1561.24 1073.59 1518.17 1073.59Z" fill="#0A0A0A"/>
</svg>