<svg width="143" height="48" viewBox="0 0 143 48" fill="none" xmlns="http://www.w3.org/2000/svg">
<path d="M48.1878 40.3069C45.1569 43.3364 40.983 45.205 36.3591 45.2074C31.7354 45.2074 27.563 43.3364 24.5305 40.3069C24.4215 40.1983 24.3157 40.0897 24.21 39.9776C21.2974 36.899 19.7455 32.7752 19.7455 28.537V23.6146C19.7455 23.4046 19.744 23.1994 19.7408 22.9973C19.7014 20.1999 19.3935 18.1272 18.8158 16.7791C18.2017 15.3456 17.2466 14.2011 15.9553 13.3424C15.9442 13.3345 15.9347 13.3266 15.9236 13.3203C14.615 12.4599 13.1074 12.029 11.4009 12.029C9.74809 12.029 8.21676 12.4141 6.80549 13.1861C5.39422 13.9564 4.10289 15.1199 3.07667 16.6764V3.85156H0V35.2652H3.07667V26.9627C3.07667 23.9472 3.06406 21.8892 3.32613 20.7873C3.76654 19.0665 4.68531 17.6236 6.08409 16.4601C7.48111 15.2967 9.06137 14.7158 10.8231 14.7158C12.3654 14.7158 13.611 15.0915 14.5613 15.8414C15.1344 16.2944 15.5985 16.8864 15.9553 17.6126C16.1905 18.0893 16.3814 18.6229 16.5219 19.2181C16.6972 19.9237 16.8029 21.185 16.8392 23.0005C16.8392 23.0241 16.8409 23.0478 16.8409 23.0715V28.4833C16.8409 33.8684 19.0273 38.7571 22.5571 42.283C26.0837 45.8135 30.9729 48.0009 36.3575 47.9998C41.7423 47.9998 46.6314 45.8135 50.158 42.283C51.2078 41.2354 52.1376 40.0652 52.9269 38.798H49.5202C49.1066 39.3247 48.663 39.8316 48.1878 40.3069Z" fill="#0A0A0A"/>
<path d="M76.0655 29.0674L68.8366 12.607H68.3204L61.0508 29.0674L54.1221 12.6338C52.7472 8.99037 50.3208 5.86779 47.2078 3.63877C44.0126 1.34972 40.085 0 35.8574 0C30.4726 0 25.5836 2.18639 22.057 5.71621C21.4049 6.3666 20.8003 7.06441 20.2446 7.80321H23.9355C23.9355 7.80321 24.0241 7.69238 24.0286 7.68794C27.0596 4.65857 31.2335 2.78949 35.8574 2.78785C39.4898 2.78785 42.8412 3.94184 45.5834 5.90412C48.3254 7.86791 50.4503 10.64 51.6074 13.8667L60.7808 35.2607H61.3176L68.5872 19.0478L75.7747 35.2607H76.3528L86.1828 12.6038H83.1265L76.0655 29.0674Z" fill="#0A0A0A"/>
<path d="M48.5194 25.0001C48.5177 24.4944 48.5162 23.9724 48.5146 23.4289C48.5146 20.2622 47.4538 17.5296 45.3336 15.2295C43.0336 12.71 40.1431 11.4502 36.659 11.4502C34.0117 11.4502 31.7069 12.1843 29.7446 13.6477C29.1242 14.1103 28.537 14.6423 27.986 15.2515C26.0033 17.4585 24.9677 20.0411 24.8762 22.9995C24.8714 23.1432 24.8667 23.2853 24.8667 23.4305C24.8667 26.5826 25.9638 29.3411 28.1613 31.7026C30.3572 34.064 33.1908 35.2448 36.6607 35.2448C38.9954 35.0474 40.9293 34.4483 42.4668 33.4497C43.7219 32.6357 44.7132 31.5554 45.4379 30.2065C45.4379 33.5385 45.4379 35.2529 45.4379 35.3487C46.1673 35.3487 47.1934 35.3487 48.5146 35.3487C48.5399 35.2308 48.5414 31.7797 48.5194 25.0001ZM36.7017 32.5364C31.6709 32.5364 27.5626 28.4278 27.5626 23.3974C27.5626 18.367 31.6709 14.2583 36.7017 14.2583C41.7326 14.2583 45.8408 18.367 45.8408 23.3974C45.8408 28.4278 41.7326 32.5364 36.7017 32.5364Z" fill="#0A0A0A"/>
<path d="M114.253 25.0001C114.251 24.4944 114.25 23.9724 114.248 23.4289C114.248 20.2622 113.187 17.5296 111.068 15.2295C108.767 12.71 105.876 11.4502 102.393 11.4502C99.7451 11.4502 97.4409 12.1843 95.4788 13.6477C94.8575 14.1103 94.2712 14.6423 93.72 15.2515C91.7369 17.4585 90.701 20.0411 90.6099 22.9995C90.6053 23.1432 90.6006 23.2853 90.6006 23.4305C90.6006 26.5826 91.6972 29.3411 93.8952 31.7026C96.0908 34.064 98.9241 35.2448 102.393 35.2448C104.727 35.0474 106.661 34.4483 108.199 33.4497C109.454 32.6357 110.445 31.5554 111.171 30.2065C111.171 33.5385 111.171 35.2529 111.171 35.3487C111.899 35.3487 112.926 35.3487 114.247 35.3487C114.274 35.2308 114.275 31.7797 114.253 25.0001ZM102.435 32.5364C97.4035 32.5364 93.2949 28.4278 93.2949 23.3974C93.2949 18.367 97.4035 14.2583 102.435 14.2583C107.466 14.2583 111.573 18.367 111.573 23.3974C111.573 28.4278 107.466 32.5364 102.435 32.5364Z" fill="#0A0A0A"/>
<path d="M142.465 25.0001C142.463 24.4944 142.462 23.9724 142.46 23.4289C142.46 20.2622 141.399 17.5296 139.279 15.2295C136.98 12.71 134.089 11.4502 130.604 11.4502C127.958 11.4502 125.652 12.1843 123.69 13.6477C123.07 14.1103 122.483 14.6423 121.931 15.2515C119.948 17.4585 118.914 20.0411 118.821 22.9995C118.817 23.1432 118.812 23.2853 118.812 23.4305C118.812 26.5826 119.91 29.3411 122.107 31.7026C124.302 34.064 127.137 35.2448 130.604 35.2448C132.94 35.0474 134.873 34.4483 136.411 33.4497C137.666 32.6357 138.657 31.5554 139.382 30.2065C139.382 33.5385 139.382 35.2529 139.382 35.3487C140.111 35.3487 141.137 35.3487 142.458 35.3487C142.484 35.2308 142.485 31.7797 142.465 25.0001ZM130.646 32.5364C125.616 32.5364 121.506 28.4278 121.506 23.3974C121.506 18.367 125.616 14.2583 130.646 14.2583C135.676 14.2583 139.785 18.367 139.785 23.3974C139.785 28.4278 135.676 32.5364 130.646 32.5364Z" fill="#0A0A0A"/>
</svg>
