<svg width="95" height="32" viewBox="0 0 95 32" fill="none" xmlns="http://www.w3.org/2000/svg">
<path d="M32.1252 26.871C30.1046 28.8906 27.322 30.1364 24.2394 30.1379C21.1569 30.1379 18.3753 28.8906 16.3536 26.871C16.281 26.7985 16.2105 26.7261 16.14 26.6514C14.1983 24.599 13.1637 21.8498 13.1637 19.0243V15.7427C13.1637 15.6028 13.1627 15.466 13.1606 15.3312C13.1342 13.4663 12.929 12.0845 12.5438 11.1857C12.1345 10.2301 11.4977 9.46708 10.6368 8.89458C10.6295 8.88936 10.6231 8.88407 10.6157 8.87987C9.74334 8.30628 8.73826 8.01898 7.60059 8.01898C6.49873 8.01898 5.47784 8.27576 4.53699 8.79041C3.59615 9.30397 2.73526 10.0796 2.05112 11.1173V2.56738H0V23.5098H2.05112V17.9748C2.05112 15.9645 2.04271 14.5925 2.21742 13.8579C2.51103 12.7107 3.12354 11.7487 4.05606 10.9731C4.98741 10.1975 6.04092 9.8102 7.21542 9.8102C8.24362 9.8102 9.07399 10.0607 9.70753 10.5606C10.0896 10.8626 10.399 11.2573 10.6368 11.7414C10.7937 12.0592 10.921 12.415 11.0146 12.8117C11.1315 13.2822 11.2019 14.123 11.2262 15.3334C11.2262 15.3491 11.2273 15.3649 11.2273 15.3807V18.9885C11.2273 22.5786 12.6848 25.8378 15.0381 28.1883C17.3892 30.542 20.6486 32.0003 24.2383 31.9995C27.8282 31.9995 31.0876 30.542 33.4387 28.1883C34.1386 27.4899 34.7584 26.7098 35.2846 25.865H33.0135C32.7377 26.2162 32.442 26.5541 32.1252 26.871Z" fill="#0A0A0A"/>
<path d="M50.71 19.3783L45.8908 8.40463H45.5466L40.7002 19.3783L36.0811 8.42254C35.1645 5.99358 33.5469 3.91186 31.4715 2.42585C29.3414 0.899814 26.723 0 23.9046 0C20.3147 0 17.0554 1.4576 14.7043 3.8108C14.2696 4.2444 13.8665 4.70961 13.4961 5.20214H15.9567C15.9567 5.20214 16.0158 5.12825 16.0187 5.12529C18.0394 3.10571 20.822 1.85966 23.9046 1.85857C26.3262 1.85857 28.5605 2.62789 30.3886 3.93608C32.2166 5.24528 33.6332 7.09333 34.4046 9.2445L40.5202 23.5072H40.8781L45.7245 12.6985L50.5161 23.5072H50.9015L57.4549 8.40253H55.4173L50.71 19.3783Z" fill="#0A0A0A"/>
<path d="M32.3461 16.6661C32.345 16.3289 32.344 15.9809 32.3429 15.6186C32.3429 13.5075 31.6357 11.6858 30.2222 10.1523C28.6889 8.47268 26.7619 7.63281 24.4392 7.63281C22.6743 7.63281 21.1378 8.12223 19.8296 9.0978C19.416 9.4062 19.0245 9.76085 18.6572 10.167C17.3354 11.6383 16.645 13.3601 16.5839 15.3324C16.5808 15.4281 16.5776 15.5229 16.5776 15.6197C16.5776 17.7211 17.309 19.5601 18.774 21.1344C20.2379 22.7087 22.127 23.4959 24.4403 23.4959C25.9968 23.3643 27.286 22.9649 28.311 22.2992C29.1478 21.7565 29.8087 21.0363 30.2918 20.137C30.2918 22.3583 30.2918 23.5013 30.2918 23.5652C30.778 23.5652 31.4621 23.5652 32.3429 23.5652C32.3598 23.4865 32.3608 21.1858 32.3461 16.6661ZM24.4676 21.6903C21.1138 21.6903 18.3749 18.9512 18.3749 15.5976C18.3749 12.244 21.1138 9.50485 24.4676 9.50485C27.8215 9.50485 30.5604 12.244 30.5604 15.5976C30.5604 18.9512 27.8215 21.6903 24.4676 21.6903Z" fill="#0A0A0A"/>
<path d="M76.1684 16.6661C76.1676 16.3289 76.1668 15.9809 76.1653 15.6186C76.1653 13.5075 75.4583 11.6858 74.0452 10.1523C72.5113 8.47268 70.5843 7.63281 68.2618 7.63281C66.4967 7.63281 64.9606 8.12223 63.6526 9.0978C63.2383 9.4062 62.8475 9.76085 62.48 10.167C61.158 11.6383 60.4673 13.3601 60.4066 15.3324C60.4035 15.4281 60.4004 15.5229 60.4004 15.6197C60.4004 17.7211 61.1315 19.5601 62.5968 21.1344C64.0605 22.7087 65.9494 23.4959 68.2618 23.4959C69.8182 23.3643 71.1075 22.9649 72.1329 22.2992C72.9691 21.7565 73.6302 21.0363 74.1137 20.137C74.1137 22.3583 74.1137 23.5013 74.1137 23.5652C74.5995 23.5652 75.2839 23.5652 76.1645 23.5652C76.1824 23.4865 76.1832 21.1858 76.1684 16.6661ZM68.2898 21.6903C64.9357 21.6903 62.1966 18.9512 62.1966 15.5976C62.1966 12.244 64.9357 9.50485 68.2898 9.50485C71.644 9.50485 74.3823 12.244 74.3823 15.5976C74.3823 18.9512 71.644 21.6903 68.2898 21.6903Z" fill="#0A0A0A"/>
<path d="M94.9768 16.6661C94.9752 16.3289 94.9744 15.9809 94.9737 15.6186C94.9737 13.5075 94.2659 11.6858 92.8528 10.1523C91.3197 8.47268 89.3927 7.63281 87.0694 7.63281C85.3051 7.63281 83.7682 8.12223 82.4602 9.0978C82.0467 9.4062 81.6551 9.76085 81.2876 10.167C79.9656 11.6383 79.2758 13.3601 79.2142 15.3324C79.2111 15.4281 79.208 15.5229 79.208 15.6197C79.208 17.7211 79.9399 19.5601 81.4044 21.1344C82.8682 22.7087 84.7578 23.4959 87.0694 23.4959C88.6266 23.3643 89.9152 22.9649 90.9406 22.2992C91.7776 21.7565 92.4378 21.0363 92.9213 20.137C92.9213 22.3583 92.9213 23.5013 92.9213 23.5652C93.4071 23.5652 94.0915 23.5652 94.9721 23.5652C94.9892 23.4865 94.99 21.1858 94.9768 16.6661ZM87.0975 21.6903C83.7441 21.6903 81.0042 18.9512 81.0042 15.5976C81.0042 12.244 83.7441 9.50485 87.0975 9.50485C90.4508 9.50485 93.1899 12.244 93.1899 15.5976C93.1899 18.9512 90.4508 21.6903 87.0975 21.6903Z" fill="#0A0A0A"/>
</svg>
